<?xml version="1.0" standalone="no"?>
<!DOCTYPE svg PUBLIC "-//W3C//DTD SVG 20010904//EN"
 "http://www.w3.org/TR/2001/REC-SVG-20010904/DTD/svg10.dtd">
<svg version="1.0" xmlns="http://www.w3.org/2000/svg"
 width="400.000000pt" height="400.000000pt" viewBox="0 0 400.000000 400.000000"
 preserveAspectRatio="xMidYMid meet">
<metadata>
Created by potrace 1.11, written by Peter Selinger 2001-2013
</metadata>
<g transform="translate(0.000000,400.000000) scale(0.100000,-0.100000)"
fill="#000000" stroke="none">
<path d="M1380 3527 c-22 -10 -73 -44 -105 -69 -46 -37 -64 -61 -78 -106 -16
-47 -16 -55 -2 -88 8 -19 14 -38 13 -42 -1 -4 2 -22 6 -39 8 -34 19 -42 32
-22 4 6 20 8 40 4 24 -4 53 1 94 16 41 15 70 19 97 15 21 -3 46 -6 56 -7 9 0
17 -6 17 -14 0 -11 12 -13 56 -8 40 3 54 2 50 -6 -7 -10 7 -16 28 -12 5 1 17
-6 27 -15 12 -10 42 -18 81 -21 35 -3 65 -6 67 -8 2 -2 -4 -11 -13 -20 -21
-22 -13 -33 21 -29 16 2 21 1 13 -2 -24 -11 -60 -46 -60 -61 0 -20 50 -5 72
21 32 39 19 -4 -14 -45 -27 -33 -30 -42 -18 -49 13 -8 8 -14 -10 -12 -3 0 -4
-15 -2 -35 3 -24 7 -31 13 -22 5 8 9 10 9 6 0 -5 7 -2 15 7 9 8 15 18 15 22
-1 4 4 11 12 15 11 7 10 11 -2 18 -12 8 -10 12 10 19 35 14 60 -9 43 -38 -7
-11 -9 -21 -3 -25 5 -3 11 -1 15 5 10 16 28 12 21 -5 -3 -8 -1 -15 4 -15 6 0
10 4 10 9 0 9 97 31 105 23 2 -3 -5 -18 -16 -34 -24 -33 -23 -39 7 -28 11 5
29 24 38 44 18 39 34 47 35 19 3 -57 5 -63 24 -57 16 5 18 2 12 -15 -3 -11 -1
-30 6 -42 l12 -22 13 24 c7 13 13 18 14 10 0 -11 4 -9 15 5 14 18 14 18 15 -4
0 -13 7 -30 15 -39 10 -9 13 -23 9 -37 -6 -20 -5 -20 22 4 16 14 32 29 35 34
4 4 9 3 13 -2 3 -6 2 -13 -4 -17 -5 -3 -7 -17 -4 -30 3 -12 1 -26 -5 -29 -14
-9 -14 -26 -1 -26 6 0 10 7 10 15 0 8 5 15 10 15 15 0 12 -30 -4 -36 -7 -3
-13 -16 -13 -30 0 -25 12 -33 20 -11 3 6 4 -3 2 -22 -2 -18 -7 -36 -11 -40 -4
-3 -4 2 -1 12 4 9 2 17 -3 17 -6 0 -10 -9 -10 -20 0 -11 -7 -23 -15 -26 -8 -4
-15 -12 -15 -20 0 -8 6 -11 15 -8 16 7 21 -11 6 -21 -5 -3 1 -16 14 -29 46
-46 42 -122 -11 -266 -24 -65 -42 -186 -26 -176 5 3 7 -8 4 -23 -8 -59 16 -38
37 32 12 39 28 92 36 117 7 25 21 72 30 104 9 33 30 87 47 120 33 66 58 139
58 173 0 13 15 69 34 125 38 115 51 166 47 186 -1 8 2 19 8 26 5 6 6 18 2 25
-5 7 -5 28 -1 46 4 18 4 39 0 46 -4 8 -11 33 -15 57 -4 28 -12 42 -22 42 -9 0
-13 6 -9 15 3 8 1 15 -4 15 -6 0 -8 10 -6 23 4 25 -36 67 -65 67 -12 0 -24 13
-34 36 -8 19 -19 33 -25 29 -6 -3 -13 1 -16 9 -6 17 -92 62 -101 53 -3 -3 -14
3 -26 14 -11 10 -26 19 -33 19 -6 0 -15 7 -18 15 -3 9 -23 24 -43 33 -21 10
-56 29 -78 44 -44 28 -101 43 -110 28 -4 -7 -13 -6 -25 0 -11 6 -42 13 -71 15
-29 3 -70 10 -93 16 -71 18 -118 20 -175 5 -56 -14 -78 -12 -236 18 -16 3 -41
0 -55 -7z m657 -139 c-3 -8 -6 -5 -6 6 -1 11 2 17 5 13 3 -3 4 -12 1 -19z m23
-38 c0 -5 -2 -10 -4 -10 -3 0 -8 5 -11 10 -3 6 -1 10 4 10 6 0 11 -4 11 -10z
m156 -10 c8 0 14 -4 14 -9 0 -4 10 -6 23 -4 14 3 29 -2 38 -13 13 -16 12 -16
-10 -4 -21 11 -26 10 -36 -3 -15 -21 -40 -4 -49 33 -3 14 -3 19 0 13 3 -7 12
-13 20 -13z m104 -16 c0 -2 -9 0 -20 6 -11 6 -20 13 -20 16 0 2 9 0 20 -6 11
-6 20 -13 20 -16z m-511 -44 c0 -11 -3 -9 -11 5 -11 19 -11 19 -19 0 -7 -17
-8 -17 -8 6 -1 14 2 29 6 32 8 9 32 -23 32 -43z m275 17 c10 -4 16 -10 13 -14
-4 -3 -2 -12 5 -20 6 -7 8 -17 4 -20 -10 -10 -56 43 -56 64 0 11 3 14 8 7 4
-6 16 -14 26 -17z m85 -3 c3 2 12 -3 19 -10 21 -23 -38 -6 -63 18 -20 19 -20
19 9 4 16 -8 32 -13 35 -12z m-962 -6 c-3 -8 -6 -5 -6 6 -1 11 2 17 5 13 3 -3
4 -12 1 -19z m728 -20 c-4 -36 -4 -38 -14 -38 -14 0 -19 23 -10 48 11 28 27
21 24 -10z m99 16 c9 -23 7 -31 -4 -14 -7 12 -11 10 -18 -9 -7 -20 -10 -21
-15 -8 -4 10 -2 17 3 17 6 0 10 7 10 15 0 20 16 19 24 -1z m-184 -9 c0 -12
-19 -12 -23 0 -4 9 -1 12 9 8 7 -3 14 -7 14 -8z m430 0 c7 -8 9 -15 6 -15 -4
0 -14 7 -22 15 -9 8 -11 15 -6 15 5 0 15 -7 22 -15z m-313 -27 c-3 -7 -5 -2
-5 12 0 14 2 19 5 13 2 -7 2 -19 0 -25z m203 3 c13 -26 14 -52 0 -31 -5 8 -10
11 -10 5 0 -14 -20 17 -20 33 0 19 18 14 30 -7z m-273 -33 c-3 -8 -6 -5 -6 6
-1 11 2 17 5 13 3 -3 4 -12 1 -19z m68 -48 c3 -5 1 -10 -4 -10 -6 0 -11 5 -11
10 0 6 2 10 4 10 3 0 8 -4 11 -10z m127 -32 c9 2 19 -2 23 -8 4 -6 -8 -10 -34
-10 -22 0 -42 4 -45 9 -7 11 15 21 29 12 6 -3 17 -4 27 -3z m3 -97 c-18 -7
-55 -4 -55 5 0 2 17 4 38 3 28 0 32 -2 17 -8z m-215 -16 c-7 -8 -16 -15 -21
-15 -5 0 -6 7 -3 15 4 8 13 15 21 15 13 0 13 -3 3 -15z m123 -6 c-8 -8 -13 -7
-18 2 -5 8 -4 10 3 5 7 -4 12 -2 12 5 0 7 3 9 7 6 4 -4 2 -12 -4 -18z m-39
-23 c-3 -8 -14 -16 -26 -19 -19 -5 -19 -5 -2 14 20 22 36 25 28 5z m46 -38 c0
-4 -5 -8 -11 -8 -5 0 -8 4 -4 9 3 5 1 12 -5 16 -5 3 -10 12 -10 18 1 13 30
-22 30 -35z m377 -460 c-3 -8 -6 -5 -6 6 -1 11 2 17 5 13 3 -3 4 -12 1 -19z"/>
<path d="M1788 3043 c6 -2 18 -2 25 0 6 3 1 5 -13 5 -14 0 -19 -2 -12 -5z"/>
<path d="M1037 2793 c-4 -3 -7 -11 -7 -16 0 -6 2 -8 5 -5 5 5 65 -48 65 -57 0
-3 -6 -2 -13 1 -20 7 -49 -19 -41 -39 3 -9 10 -14 15 -11 5 3 9 -9 9 -26 0
-19 4 -29 10 -25 6 4 8 10 5 15 -8 14 26 49 41 43 17 -6 18 9 2 25 -7 7 -9 12
-5 12 13 0 -32 77 -48 84 -21 8 -30 8 -38 -1z"/>
<path d="M1282 2767 c-36 -38 -23 -55 36 -48 21 3 13 -15 -11 -26 -19 -9 -23
-17 -19 -47 2 -20 9 -36 15 -36 5 0 25 -11 43 -25 22 -17 32 -20 28 -10 -5 12
0 14 25 9 28 -6 32 -4 42 25 6 17 13 31 16 31 3 0 22 -9 42 -21 20 -11 28 -14
19 -6 -10 8 -18 17 -18 21 0 10 55 -21 71 -40 13 -15 12 -16 -11 -10 -24 7
-24 6 -6 -8 22 -18 32 -20 40 -7 9 13 -38 55 -91 82 -27 13 -49 27 -51 32 -2
4 -11 7 -21 7 -25 0 -52 23 -43 36 4 7 36 19 72 27 l65 15 -72 1 c-42 1 -73 5
-73 11 0 6 -17 10 -38 10 -27 0 -45 -7 -60 -23z m208 -117 c8 -5 11 -10 5 -10
-5 0 -17 5 -25 10 -8 5 -10 10 -5 10 6 0 17 -5 25 -10z m-138 -25 c0 -5 -5
-11 -11 -13 -6 -2 -11 4 -11 13 0 9 5 15 11 13 6 -2 11 -8 11 -13z"/>
<path d="M2335 2560 c3 -5 8 -10 11 -10 2 0 4 5 4 10 0 6 -5 10 -11 10 -5 0
-7 -4 -4 -10z"/>
<path d="M2320 2480 c0 -5 5 -10 11 -10 5 0 7 5 4 10 -3 6 -8 10 -11 10 -2 0
-4 -4 -4 -10z"/>
<path d="M2313 2408 c19 -15 41 -117 33 -151 -4 -13 0 -10 9 8 21 45 19 111
-5 135 -11 11 -28 20 -37 20 -16 0 -16 -1 0 -12z"/>
<path d="M1050 2353 c0 -11 46 -23 83 -23 35 0 6 18 -40 26 -27 4 -43 3 -43
-3z"/>
<path d="M2210 2340 c0 -6 6 -21 14 -33 27 -43 28 -65 5 -88 -17 -17 -18 -23
-8 -29 13 -9 49 5 61 24 4 6 8 25 8 43 0 25 -8 38 -40 63 -22 17 -40 27 -40
20z"/>
<path d="M966 2234 c-9 -24 -7 -27 9 -10 17 17 19 26 6 26 -5 0 -12 -7 -15
-16z"/>
<path d="M961 2174 c0 -11 3 -14 6 -6 3 7 2 16 -1 19 -3 4 -6 -2 -5 -13z"/>
<path d="M1314 2153 c-4 -16 -11 -34 -17 -40 -5 -7 -6 -13 -2 -13 4 0 2 -6 -4
-14 -17 -21 24 -32 55 -15 29 15 30 34 4 77 -24 39 -28 40 -36 5z"/>
<path d="M1000 2136 c0 -8 5 -18 10 -21 6 -3 10 3 10 14 0 12 -4 21 -10 21 -5
0 -10 -6 -10 -14z"/>
<path d="M1245 2080 c3 -5 11 -10 16 -10 6 0 7 5 4 10 -3 6 -11 10 -16 10 -6
0 -7 -4 -4 -10z"/>
<path d="M2063 2079 c-15 -15 -18 -69 -4 -69 17 0 27 25 22 53 -5 23 -8 26
-18 16z"/>
<path d="M2344 1617 c0 -125 -4 -156 -31 -263 -32 -121 -51 -174 -63 -174 -10
0 -32 -69 -25 -81 13 -19 -4 -59 -25 -59 -31 0 -27 -54 5 -82 14 -12 23 -27
21 -34 -3 -7 1 -20 9 -30 7 -10 11 -24 8 -30 -2 -7 3 -24 12 -38 14 -21 25
-26 61 -26 23 0 46 4 49 10 3 5 1 10 -6 10 -7 0 -5 6 5 13 16 12 17 18 7 43
l-11 29 6 -32 c3 -18 1 -33 -4 -33 -5 0 -9 6 -9 13 -1 6 -6 27 -11 45 -10 30
0 47 11 20 3 -8 6 -6 6 5 1 9 -6 17 -14 17 -8 0 -15 5 -15 11 0 5 4 7 10 4 7
-4 7 3 0 20 -13 34 -8 41 35 49 19 4 35 11 35 16 0 11 46 20 126 25 85 6 87 6
104 20 19 16 92 25 87 11 -2 -6 -17 -13 -34 -17 -17 -3 -43 -16 -58 -28 -15
-11 -33 -21 -40 -21 -16 0 -45 -33 -45 -52 0 -9 -7 -18 -15 -22 -9 -3 -15 -19
-15 -41 0 -23 -8 -43 -22 -57 -13 -13 -22 -28 -20 -35 1 -6 -2 -14 -8 -18 -5
-3 -10 -12 -10 -18 1 -7 12 2 25 18 18 22 25 25 25 13 0 -9 -6 -18 -12 -21
-10 -3 -9 -9 4 -23 12 -14 14 -24 7 -37 -9 -14 -5 -18 21 -23 29 -6 30 -9 24
-38 -7 -35 -7 -32 -5 -65 1 -20 5 -23 34 -18 17 3 43 8 57 12 103 29 201 35
226 14 10 -9 14 -9 14 0 0 6 5 11 10 11 6 0 10 -8 10 -17 -1 -17 -60 -63 -82
-63 -25 0 -69 -37 -78 -66 -11 -34 -47 -64 -76 -64 -9 0 -27 -9 -41 -20 -31
-24 -61 -26 -70 -4 -4 10 -8 12 -12 5 -6 -10 -48 108 -95 271 -9 31 -28 81
-42 110 -29 63 -26 43 15 -72 44 -128 85 -264 173 -575 37 -131 39 -135 59
-135 23 0 23 -1 4 44 -8 20 -13 36 -10 36 3 0 -1 10 -10 23 -8 13 -12 27 -8
30 3 4 1 7 -5 7 -12 0 -46 85 -56 140 -6 35 -6 36 30 38 45 3 91 22 123 51 16
14 37 21 63 21 22 0 48 5 59 10 17 10 19 8 17 -17 -1 -16 1 -33 5 -39 4 -7 -5
-9 -24 -6 -17 3 -41 -1 -54 -8 -17 -9 -28 -9 -43 -1 -25 13 -35 14 -28 2 4 -5
-3 -7 -14 -4 -17 4 -20 0 -20 -25 0 -17 -5 -34 -11 -37 -6 -4 -8 -14 -5 -22 3
-8 1 -24 -5 -35 -9 -17 -13 -18 -21 -7 -8 11 -8 10 -4 -4 3 -11 9 -31 13 -45
3 -14 12 -37 19 -51 8 -14 14 -36 14 -48 0 -54 -3 -53 214 -53 l201 0 -32 31
c-39 35 -40 41 -11 37 17 -2 24 4 31 30 12 40 25 41 38 2 6 -17 15 -30 20 -30
5 0 9 -10 9 -23 0 -47 0 -47 437 -47 l413 0 0 208 c0 167 -3 218 -16 258 -9
27 -21 54 -25 60 -5 6 -3 23 6 40 42 86 25 216 -49 364 -23 47 -56 112 -72
145 -16 33 -33 58 -39 55 -5 -2 -9 -10 -7 -17 2 -7 -1 -21 -7 -30 -7 -14 -12
-8 -24 32 -8 28 -10 52 -6 53 22 9 4 41 -57 99 -65 62 -87 73 -97 53 -3 -6 -4
-5 -3 2 5 24 -105 83 -189 101 -43 9 -83 23 -87 31 -9 15 -118 69 -125 62 -3
-2 4 -7 15 -10 11 -4 23 -13 26 -21 3 -8 13 -15 23 -15 10 0 25 -5 33 -10 18
-13 -24 -7 -107 15 -70 18 -149 20 -156 3 -4 -10 -8 -10 -14 -1 -4 6 -21 15
-36 18 -15 4 -27 11 -27 16 0 5 -7 9 -17 9 -9 0 -13 3 -10 7 9 8 -118 74 -206
107 -36 14 -69 21 -72 16 -8 -13 -111 -6 -128 9 -8 6 -25 10 -38 10 -13 -1
-32 2 -43 6 -15 7 -14 1 8 -32 39 -58 76 -170 76 -229 0 -28 -7 -71 -15 -94
-17 -48 -18 -60 -7 -60 9 0 37 54 50 100 10 34 10 34 5 -10 -3 -25 -9 -49 -13
-54 -5 -5 -6 -15 -3 -22 3 -8 1 -14 -5 -14 -6 0 -8 -25 -5 -64 4 -44 2 -66 -7
-71 -9 -6 -10 0 -5 24 4 19 3 31 -4 31 -5 0 -11 -15 -13 -32 -2 -27 -8 -34
-28 -36 -14 -2 -29 -8 -35 -13 -5 -5 -14 -9 -19 -9 -6 0 9 20 34 44 62 60 72
74 60 81 -6 3 -10 1 -10 -4 0 -17 -20 -13 -27 5 -3 9 0 20 8 25 8 5 9 9 3 9
-5 0 -23 -13 -39 -30 l-29 -30 27 0 c19 0 25 -4 21 -15 -4 -8 -10 -15 -16 -15
-12 0 -38 -26 -32 -33 3 -2 -2 -7 -11 -11 -9 -3 -13 -2 -10 4 3 6 1 10 -4 10
-6 0 -11 -8 -11 -17 0 -14 -2 -15 -9 -4 -5 7 -13 11 -19 7 -5 -3 -13 1 -16 9
-5 15 -1 30 47 155 30 78 29 223 -2 345 -40 153 -46 152 -47 -8z m376 -7 c12
-8 12 -10 -5 -10 -11 0 -27 5 -35 10 -12 8 -12 10 5 10 11 0 27 -5 35 -10z
m165 -70 c18 -8 18 -9 -5 -9 -14 0 -32 4 -40 9 -12 8 -12 10 5 9 11 0 29 -4
40 -9z m200 -90 c39 -19 55 -35 55 -54 0 -9 19 -25 43 -37 58 -30 31 -35 -43
-8 -70 25 -78 34 -55 59 18 20 2 41 -18 21 -13 -13 -54 -15 -62 -2 -3 5 4 12
15 16 11 3 20 11 20 17 0 5 3 8 8 6 4 -2 21 -10 37 -18z m188 -17 c-7 -2 -19
-2 -25 0 -7 3 -2 5 12 5 14 0 19 -2 13 -5z m-358 -148 c20 -31 32 -40 38 -32
5 7 6 4 3 -9 -4 -13 1 -29 15 -45 11 -13 27 -37 35 -52 8 -15 19 -25 25 -22 5
4 8 3 7 -2 -1 -4 3 -18 10 -30 7 -12 8 -24 4 -27 -9 -6 -72 71 -72 88 0 6 -11
20 -24 30 -14 10 -28 31 -31 47 -4 16 -14 35 -24 41 -19 14 -51 58 -51 70 0
17 36 -16 65 -57z m370 28 c46 -11 81 -34 98 -62 22 -37 67 -44 67 -11 0 15 7
20 29 20 26 0 29 -3 35 -46 11 -83 11 -82 -39 -76 -61 6 -104 -13 -112 -49 -5
-26 -10 -29 -45 -29 -35 0 -39 -2 -36 -22 3 -20 10 -23 55 -26 49 -3 53 -1 59
23 8 33 37 48 76 40 26 -6 29 -9 15 -17 -10 -5 -17 -21 -17 -37 0 -34 -40 -66
-71 -56 -11 4 -33 4 -49 0 -24 -5 -30 -12 -30 -33 1 -35 36 -76 81 -95 31 -13
99 -89 99 -111 0 -14 -28 -4 -50 17 -14 12 -27 21 -30 19 -2 -2 -6 1 -8 7 -2
6 1 11 7 11 18 0 12 29 -8 40 -28 14 -71 12 -105 -5 -32 -17 -56 -19 -56 -6 0
5 -10 11 -22 15 -19 5 -20 8 -8 15 8 5 17 8 21 5 4 -2 18 0 32 5 22 9 24 15
23 58 -2 39 -6 49 -22 51 -18 3 -57 56 -126 174 -16 26 -28 52 -28 58 0 20 33
9 73 -25 42 -36 75 -40 101 -14 15 14 -33 58 -76 70 -34 9 -37 12 -28 29 6 11
9 25 8 32 -2 7 7 14 20 16 16 3 22 8 18 19 -5 11 -2 13 11 8 10 -4 27 -9 38
-12z m329 -152 c7 -11 -22 -23 -35 -15 -5 3 -9 9 -9 15 0 12 37 12 44 0z
m-1294 -91 c0 -5 -4 -10 -10 -10 -5 0 -10 5 -10 10 0 6 5 10 10 10 6 0 10 -4
10 -10z m828 -229 c56 -54 102 -103 102 -109 0 -6 -31 -16 -70 -23 -64 -11
-73 -10 -105 7 -29 16 -39 17 -68 6 -44 -16 -69 -15 -93 2 -19 14 -19 15 3 38
14 15 44 29 80 36 80 17 131 62 86 76 -10 3 -44 7 -75 8 -32 2 -58 6 -58 10 0
7 68 45 85 47 6 0 57 -44 113 -98z m606 -55 c-10 -8 -21 -12 -24 -10 -5 6 21
24 34 24 6 0 1 -6 -10 -14z m-380 -159 c31 -29 56 -56 56 -60 0 -15 -21 -6
-41 17 -12 14 -27 22 -34 20 -7 -3 -16 -1 -19 5 -4 6 -13 8 -20 5 -7 -3 -16 1
-19 9 -7 18 2 57 13 57 5 0 34 -24 64 -53z m110 -3 c9 -24 7 -28 -9 -14 -17
14 -20 30 -6 30 5 0 12 -7 15 -16z m-218 -95 c3 -6 27 -20 51 -31 35 -15 47
-17 59 -7 8 6 17 9 21 5 15 -14 -31 -33 -63 -26 -18 4 -35 6 -38 3 -2 -3 -13
0 -24 6 -17 9 -24 6 -46 -22 -15 -17 -31 -38 -37 -45 -7 -8 -7 -17 -1 -25 5
-7 12 -21 16 -32 3 -11 4 -7 2 10 -3 20 3 38 20 58 13 16 22 33 18 38 -10 16
34 10 51 -8 11 -10 33 -16 60 -16 l43 0 6 -49 c4 -27 4 -53 1 -58 -3 -6 -1
-10 4 -10 6 0 11 -7 11 -16 0 -8 -4 -12 -10 -9 -5 3 -10 1 -10 -5 0 -6 7 -13
15 -16 9 -4 14 -18 13 -40 -2 -53 -16 -40 -29 26 l-11 59 -29 -15 c-16 -8 -29
-17 -29 -20 0 -2 9 0 19 6 11 5 22 10 25 10 3 0 6 -30 6 -66 0 -55 -3 -67 -18
-71 -17 -4 -18 -10 -9 -65 13 -86 3 -92 -86 -46 -73 38 -106 75 -114 128 -3
13 -9 30 -15 37 -5 7 -7 17 -3 23 3 5 2 10 -4 10 -5 0 -8 9 -6 20 2 11 -2 25
-8 32 -27 29 -17 65 17 59 11 -2 36 19 36 30 0 5 -15 6 -32 4 l-33 -5 28 13
c43 21 84 64 98 102 14 36 23 43 35 24z m-439 -5 c-3 -3 -12 -4 -19 -1 -8 3
-5 6 6 6 11 1 17 -2 13 -5z m257 -149 c-6 -16 -24 -21 -24 -7 0 11 11 22 21
22 5 0 6 -7 3 -15z m-56 -48 c18 -14 15 -23 -19 -58 -23 -24 -27 -34 -19 -44
8 -10 8 -19 0 -34 -6 -11 -8 -31 -5 -44 6 -21 3 -24 -27 -24 -18 0 -35 3 -38
6 -3 4 -19 17 -37 29 -23 16 -33 33 -38 63 -8 46 7 70 47 74 13 1 29 3 36 4 7
0 17 12 22 26 8 22 14 24 37 19 16 -4 34 -11 41 -17z m79 -139 c-3 -7 -5 -2
-5 12 0 14 2 19 5 13 2 -7 2 -19 0 -25z m316 -19 c-6 -6 -9 -19 -6 -28 3 -11
2 -12 -4 -4 -6 8 -14 9 -23 3 -13 -9 -13 -10 0 -10 13 0 13 -1 0 -10 -22 -14
-26 -12 -27 10 -2 18 2 21 22 20 3 -1 13 6 21 15 9 8 18 15 22 15 3 0 1 -5 -5
-11z m-300 -19 c3 -11 1 -18 -4 -14 -5 3 -9 12 -9 20 0 20 7 17 13 -6z m327
-36 c0 -8 -5 -12 -10 -9 -6 4 -8 11 -5 16 9 14 15 11 15 -7z m-200 -94 c8 -5
11 -10 5 -10 -5 0 -17 5 -25 10 -8 5 -10 10 -5 10 6 0 17 -5 25 -10z"/>
<path d="M3330 258 c0 -7 3 -30 7 -51 4 -26 9 -34 14 -25 14 21 10 58 -6 74
-12 12 -15 12 -15 2z"/>
<path d="M3280 87 c0 -19 18 -22 40 -6 13 9 13 10 -1 6 -9 -3 -22 0 -28 6 -8
8 -11 7 -11 -6z"/>
<path d="M1025 1726 c17 -7 77 -24 134 -36 58 -12 116 -26 130 -31 24 -10 24
-10 -15 -30 -76 -41 -227 -170 -206 -177 5 -1 27 1 50 6 22 5 46 6 53 1 9 -6
2 -9 -21 -9 -57 0 -106 -18 -157 -58 -26 -21 -77 -55 -112 -77 -63 -38 -75
-47 -127 -92 -14 -13 -31 -23 -39 -23 -8 0 -15 -4 -15 -10 0 -5 -9 -10 -19
-10 -11 0 -21 -4 -23 -9 -5 -13 -48 -24 -48 -12 0 10 20 21 80 46 42 17 186
123 178 130 -10 10 -178 -52 -178 -66 0 -5 -6 -9 -14 -9 -14 0 -104 -40 -136
-61 -8 -5 -37 -20 -65 -33 -55 -25 -115 -77 -135 -115 -11 -21 -10 -26 4 -36
21 -16 20 -27 -4 -48 -17 -14 -20 -14 -20 -2 0 27 -18 16 -29 -17 -7 -18 -36
-74 -66 -125 -31 -52 -60 -115 -67 -145 -6 -29 -17 -60 -23 -68 -20 -25 -91
-172 -110 -225 -13 -38 -18 -92 -20 -217 l-4 -168 105 0 c95 0 105 2 102 18
-3 13 -15 17 -58 18 -95 2 -94 2 -79 20 8 10 15 12 17 5 2 -6 9 -11 17 -11 7
0 -3 16 -21 36 -74 78 -15 99 69 25 22 -20 41 -29 51 -25 9 3 16 2 16 -3 0 -5
10 -9 22 -10 20 -2 21 -1 5 8 -9 6 -15 14 -12 19 8 13 116 -52 128 -78 l10
-22 524 0 c465 0 523 2 523 15 0 9 -11 26 -24 38 -19 17 -22 27 -15 40 11 18
4 37 -13 37 -5 0 -7 -8 -4 -17 4 -10 -3 -7 -19 9 -20 21 -24 30 -16 49 9 25
14 20 24 -26 3 -11 5 1 6 27 0 26 7 53 15 60 11 11 11 15 -3 24 -13 10 -14 17
-4 46 11 31 11 94 -2 164 -4 26 -2 32 16 37 18 5 19 8 8 29 -6 13 -17 26 -23
30 -7 5 -3 8 9 9 l20 0 -20 9 c-18 8 -18 9 5 10 24 2 24 2 -5 11 -22 6 -33 5
-40 -4 -5 -8 -17 -16 -25 -20 -12 -4 -11 -6 3 -6 12 -1 17 -9 17 -31 0 -40
-22 -48 -68 -25 l-37 17 20 -22 c11 -12 35 -28 53 -36 25 -10 32 -18 28 -31
-3 -10 -10 -40 -15 -68 -5 -27 -14 -51 -20 -53 -6 -2 -11 -12 -11 -21 0 -28
-30 -81 -46 -81 -8 0 -14 -7 -14 -15 0 -9 -6 -18 -14 -21 -11 -4 -13 -17 -10
-45 4 -34 2 -38 -13 -32 -10 3 -27 14 -39 25 -11 10 -24 15 -29 11 -4 -5 -5
-2 -1 4 12 21 18 55 21 120 2 34 6 66 9 71 6 10 30 121 45 209 9 47 -5 62 -39
41 -21 -13 -43 -65 -35 -78 9 -14 -41 -116 -64 -132 -12 -9 -25 -32 -29 -54
-11 -55 -82 -164 -107 -164 -11 0 -56 -13 -100 -29 -57 -20 -84 -35 -92 -52
-16 -30 -17 -13 -2 30 9 24 8 35 -2 47 -17 21 6 36 44 29 19 -3 33 1 46 16 11
11 31 33 46 49 15 16 25 32 22 37 -3 4 10 31 29 58 19 28 40 61 45 75 8 20 12
22 20 10 8 -13 12 -12 25 5 13 18 13 20 0 23 -9 2 -16 6 -16 9 0 3 23 43 50
90 28 47 50 89 50 94 0 5 8 9 18 9 22 1 52 23 66 51 6 13 29 29 54 37 23 7 43
20 43 28 3 35 19 74 30 74 5 0 9 5 9 10 0 6 10 33 23 60 16 38 27 50 44 50 18
0 22 -6 21 -27 0 -16 3 -45 7 -65 6 -30 3 -42 -14 -64 -24 -31 -28 -52 -6 -34
8 7 15 19 15 27 0 8 5 11 10 8 6 -3 10 3 10 13 0 33 25 45 81 40 37 -4 52 -2
56 8 3 8 20 14 42 14 29 0 41 -7 64 -34 31 -40 33 -51 11 -94 -11 -24 -23 -32
-42 -33 -15 0 -36 -4 -47 -8 -18 -7 -18 -8 -1 -18 14 -7 17 -18 14 -37 -7 -36
5 -33 21 7 7 19 15 27 18 19 7 -19 -17 -73 -30 -65 -6 3 -7 1 -3 -5 4 -7 31
-12 61 -12 48 0 54 2 58 23 2 12 2 -7 0 -43 -5 -71 -8 -80 -26 -80 -8 0 -8 3
1 12 18 18 15 68 -3 68 -8 0 -16 -4 -16 -10 -1 -5 -3 -14 -4 -20 -1 -5 -3 -17
-4 -25 0 -8 -6 -15 -11 -15 -6 0 -8 11 -4 25 5 22 3 25 -15 22 -25 -4 -53 -27
-33 -27 7 0 12 -14 12 -31 0 -30 -2 -31 -31 -25 -17 3 -39 6 -49 6 -12 0 -22
16 -35 55 -9 30 -20 53 -24 50 -4 -2 -8 -27 -9 -56 -1 -55 -14 -73 -44 -63
-12 3 -18 0 -18 -10 0 -9 4 -16 9 -16 14 0 21 -44 8 -53 -8 -6 -5 -7 9 -4 13
3 25 -2 31 -12 11 -18 10 -62 -2 -80 -3 -6 1 -14 9 -17 9 -3 13 -10 10 -15 -3
-5 -10 -7 -15 -4 -5 4 -9 1 -9 -5 0 -7 6 -10 14 -7 7 3 19 0 25 -6 8 -8 11 -5
11 11 0 22 17 27 78 22 13 -1 22 4 22 13 0 8 9 17 20 20 11 3 20 1 20 -4 0 -5
-4 -9 -10 -9 -5 0 -10 -4 -10 -10 0 -15 16 -12 34 6 17 16 41 10 29 -8 -3 -7
-8 -29 -9 -50 -2 -20 -8 -47 -14 -58 -8 -15 -8 -20 2 -20 8 0 9 -3 3 -8 -6 -4
-11 -16 -10 -27 0 -11 -5 -40 -11 -65 -8 -34 -17 -46 -35 -51 -22 -6 -21 -7 7
-8 30 -1 32 1 44 62 7 34 18 85 25 112 7 28 11 58 9 67 -1 10 0 18 5 18 4 0 8
10 9 23 1 12 3 36 5 52 1 17 5 35 8 40 3 6 5 27 4 47 -1 21 2 38 6 38 4 0 6 8
4 18 -1 9 2 25 7 35 6 12 5 17 -4 17 -9 0 -9 3 2 10 13 9 13 10 0 10 -13 0
-13 1 0 10 13 9 13 10 0 10 -13 0 -13 1 0 10 13 9 13 10 0 10 -10 0 -11 3 -4
8 6 4 10 19 9 35 -1 15 3 27 9 27 6 0 4 5 -4 10 -13 9 -13 10 0 10 13 0 13 1
0 10 -8 5 -10 10 -4 10 15 0 23 68 9 74 -7 2 -6 7 1 15 7 7 8 27 4 49 -3 20
-5 50 -5 65 1 17 -4 31 -12 34 -12 5 -12 7 -1 14 10 7 11 9 0 9 -7 0 -10 5 -7
10 3 6 0 10 -7 10 -9 0 -9 3 2 10 13 9 13 10 0 10 -12 0 -12 2 -2 9 11 7 11 9
-2 14 -9 4 -16 13 -16 22 0 8 -9 24 -21 36 -11 11 -19 15 -18 7 3 -24 -1 -38
-11 -38 -5 0 -10 9 -10 19 0 18 -25 46 -94 105 -17 14 -33 23 -37 20 -4 -2 -5
5 -2 16 4 16 2 19 -11 14 -12 -4 -16 0 -16 16 0 11 -4 18 -10 15 -5 -3 -19 3
-30 13 -16 15 -19 27 -15 48 5 22 4 25 -4 14 -5 -8 -14 -11 -18 -6 -10 9 -11
271 -1 281 11 11 85 -5 105 -23 10 -9 25 -30 33 -45 20 -40 66 -83 109 -103
20 -9 53 -25 74 -35 21 -10 53 -19 72 -19 19 0 35 -5 35 -11 0 -6 6 -17 14
-24 9 -9 12 -29 8 -63 -5 -56 14 -122 59 -214 31 -62 45 -76 61 -60 21 21 -1
99 -38 138 -39 42 -39 40 -19 78 8 15 12 33 8 39 -4 6 -8 25 -8 41 -2 33 -54
83 -115 112 -40 19 -110 74 -155 121 -73 77 -174 122 -312 138 -30 4 -54 12
-57 21 -3 9 -21 14 -48 14 -39 0 -85 6 -203 24 l-40 6 30 -14z m150 -306 c20
0 85 -67 85 -87 0 -23 -67 -119 -118 -170 -18 -17 -32 -39 -32 -48 0 -9 -6
-29 -14 -43 -13 -24 -39 -89 -42 -102 -5 -28 -19 -67 -27 -77 -7 -10 -4 -13
11 -13 12 0 24 -4 27 -10 3 -6 -5 -10 -19 -10 -24 0 -56 -23 -56 -40 0 -4 8
-11 18 -15 16 -6 16 -7 -1 -17 -15 -8 -17 -17 -12 -49 6 -35 5 -39 -14 -39
-12 0 -21 -6 -21 -15 0 -9 -9 -45 -21 -80 -11 -35 -18 -69 -14 -75 6 -10 -60
-160 -71 -160 -4 0 -4 16 -1 35 7 40 -7 39 -17 -1 -4 -14 -2 -32 4 -40 15 -17
3 -39 -13 -26 -7 5 -24 12 -39 16 -35 8 -36 35 -7 103 37 85 42 98 45 113 2 8
11 20 21 28 10 7 17 15 15 18 -2 2 11 42 29 87 17 45 34 96 36 112 6 37 21 57
37 48 7 -4 7 -2 -1 7 -9 10 -8 18 3 35 8 12 16 42 19 66 2 27 11 48 21 54 9 6
26 17 38 27 l21 16 -22 24 -23 24 31 27 c36 31 41 33 33 12 -4 -8 -1 -15 6
-15 6 0 10 8 8 18 -2 11 -13 17 -32 17 -27 -1 -28 0 -21 45 7 56 -5 41 -40
-50 -36 -92 -39 -96 -67 -83 -46 22 -57 23 -51 5 3 -9 -4 -5 -15 10 -32 38
-28 71 13 109 19 19 35 37 35 41 0 5 -12 13 -27 19 -26 10 -26 10 -7 28 10 9
32 23 48 30 26 11 28 10 16 -3 -11 -14 -9 -16 16 -16 22 0 25 3 16 12 -17 17
-15 29 6 26 9 -2 16 2 15 8 -1 5 7 15 18 22 11 7 19 8 19 2 0 -5 -6 -10 -12
-10 -10 0 -9 -3 1 -9 8 -6 12 -21 9 -43 -3 -29 0 -34 17 -36 42 -3 65 -13 65
-29 0 -14 3 -14 21 3 16 14 19 26 14 51 -5 26 -3 32 9 27 25 -10 7 32 -20 46
-32 18 -33 55 -1 46 12 -3 27 -6 32 -6z m145 -130 c0 -5 12 -10 28 -11 l27 -1
-30 -8 c-16 -4 -38 -11 -47 -15 -21 -8 -23 -2 -6 25 14 21 28 26 28 10z m-480
-50 c0 -5 -5 -10 -11 -10 -5 0 -7 5 -4 10 3 6 8 10 11 10 2 0 4 -4 4 -10z m10
-146 c0 -3 -11 -20 -24 -37 -13 -18 -31 -49 -40 -70 -9 -23 -24 -41 -36 -44
-13 -3 -19 -11 -16 -19 3 -8 1 -14 -4 -14 -6 0 -10 9 -10 19 0 12 -8 21 -22
24 -22 3 -22 4 -3 12 21 9 90 65 80 65 -3 0 6 16 21 35 23 30 54 47 54 29z
m-280 -17 c0 -4 -8 -10 -17 -13 -10 -3 -26 -10 -35 -15 -10 -5 -23 -9 -30 -10
-7 0 -24 -14 -37 -31 -22 -27 -23 -32 -9 -42 13 -10 14 -16 4 -34 l-12 -22
-16 28 c-9 15 -18 41 -20 56 -2 24 1 29 19 31 13 1 24 4 26 6 2 2 10 16 19 30
15 23 23 26 62 25 25 0 46 -5 46 -9z m800 5 c0 -4 -5 -13 -12 -20 -12 -12 -8
-15 47 -27 27 -6 28 -8 12 -19 -9 -7 -17 -18 -17 -25 0 -6 -9 -11 -20 -11 -11
0 -20 4 -20 9 0 5 -19 16 -42 24 l-43 15 27 10 c15 6 32 20 38 32 11 20 30 28
30 12z m-490 -37 c0 -8 -4 -15 -10 -15 -5 0 -7 7 -4 15 4 8 8 15 10 15 2 0 4
-7 4 -15z m30 5 c0 -5 -4 -10 -10 -10 -5 0 -10 5 -10 10 0 6 5 10 10 10 6 0
10 -4 10 -10z m780 -31 c0 -5 -4 -9 -10 -9 -5 0 -10 7 -10 16 0 8 5 12 10 9 6
-3 10 -10 10 -16z m-1171 -15 c-8 -10 -8 -14 0 -14 6 0 11 -4 11 -10 0 -5 -7
-10 -15 -10 -8 0 -15 7 -15 15 0 8 -5 15 -12 15 -6 0 -3 6 7 14 24 17 41 10
24 -10z m45 -9 c3 -8 1 -27 -4 -41 -9 -23 -8 -25 10 -19 11 4 20 2 20 -4 0 -6
-7 -11 -16 -11 -13 0 -11 -4 6 -18 28 -23 18 -44 -17 -37 -17 3 -40 -4 -61
-17 -34 -21 -35 -21 -48 -3 -21 29 -17 35 21 35 19 0 44 8 54 17 17 14 18 18
5 27 -13 10 -12 15 8 35 15 16 18 26 10 29 -14 4 -16 22 -3 22 5 0 11 -7 15
-15z m358 9 c3 -3 4 -14 1 -24 -4 -13 -14 -18 -34 -18 -33 1 -44 11 -35 33 5
14 57 21 68 9z m-142 -104 c0 -11 -7 -20 -15 -20 -13 0 -14 4 -5 20 6 11 13
20 15 20 3 0 5 -9 5 -20z m900 0 c0 -5 -5 -10 -11 -10 -5 0 -7 5 -4 10 3 6 8
10 11 10 2 0 4 -4 4 -10z m-965 -20 c-3 -5 -12 -10 -18 -10 -7 0 -6 4 3 10 19
12 23 12 15 0z m975 -24 c0 -15 7 -26 20 -29 13 -3 18 -10 14 -21 -3 -9 -10
-16 -15 -16 -4 0 -5 7 -2 17 4 11 3 14 -5 9 -7 -4 -12 -6 -12 -4 0 2 -4 18 -9
36 -6 20 -6 32 0 32 5 0 9 -11 9 -24z m-1320 -6 c0 -5 9 -10 20 -10 27 0 25
-8 -6 -37 -22 -20 -25 -29 -20 -59 9 -45 -1 -60 -25 -38 -17 15 -21 15 -36 3
-10 -8 -29 -14 -43 -14 -22 0 -25 5 -28 37 -4 51 21 108 50 110 13 1 31 2 40
3 9 0 20 4 24 8 11 10 24 9 24 -3z m355 -13 c5 5 3 -1 -5 -12 -8 -11 -27 -30
-43 -43 -15 -13 -24 -28 -21 -34 3 -5 6 -55 6 -111 0 -83 -2 -102 -14 -101
-10 1 -13 -6 -10 -24 3 -17 1 -23 -7 -18 -6 4 -11 1 -12 -6 0 -10 -2 -10 -6 1
-4 10 -7 10 -13 1 -5 -8 -16 14 -30 56 -13 38 -25 75 -28 83 -4 9 -1 12 7 7 9
-6 10 -1 5 19 -3 14 -2 25 2 24 36 -6 41 1 33 44 -4 23 -8 51 -8 62 -1 17 1
18 10 5 8 -11 12 -12 16 -2 2 6 11 12 20 12 8 0 13 6 10 13 -2 6 8 20 22 29
22 15 27 15 41 3 9 -8 21 -12 25 -8z m-138 7 c-3 -3 -12 -4 -19 -1 -8 3 -5 6
6 6 11 1 17 -2 13 -5z m0 -30 c-3 -3 -12 -4 -19 -1 -8 3 -5 6 6 6 11 1 17 -2
13 -5z m-88 -53 c0 -14 -1 -14 -6 -1 -3 8 -10 24 -15 35 -9 20 -9 20 6 1 9
-11 16 -27 15 -35z m341 -16 c0 -33 -25 -105 -36 -105 -8 0 -14 5 -14 10 0 6
-8 11 -17 11 -16 1 -16 2 -2 6 11 3 19 20 23 54 6 45 8 48 26 39 11 -6 20 -13
20 -15z m-320 -40 c0 -5 -5 -3 -10 5 -5 8 -10 20 -10 25 0 6 5 3 10 -5 5 -8
10 -19 10 -25z m-3 -40 c12 -25 14 -38 6 -46 -8 -8 -13 -5 -18 10 -3 12 -11
21 -16 21 -5 0 -9 11 -9 25 0 36 18 31 37 -10z m-257 -129 c0 -12 -26 -5 -49
13 -16 12 -22 24 -18 36 6 14 11 13 37 -13 16 -17 30 -33 30 -36z m100 -19 c0
-8 9 -24 20 -37 11 -13 20 -27 20 -31 0 -4 8 -10 18 -13 21 -7 52 -66 52 -99
0 -12 6 -34 14 -49 8 -15 12 -37 9 -48 -5 -21 -7 -20 -34 10 -16 17 -29 35
-29 41 0 5 -4 9 -10 9 -5 0 -10 -5 -10 -10 0 -19 -50 22 -56 46 -3 13 -10 24
-14 24 -17 0 -20 33 -4 45 18 13 11 35 -11 35 -8 0 -17 5 -20 10 -11 18 -24
71 -16 66 4 -3 13 -1 21 5 22 13 50 11 50 -4z m1230 -62 c21 -22 21 -25 5 -25
-10 0 -35 5 -56 12 -31 9 -37 14 -28 25 18 21 53 15 79 -12z m-973 -7 c-3 -8
-6 -5 -6 6 -1 11 2 17 5 13 3 -3 4 -12 1 -19z m-47 -8 c0 -5 -5 -10 -11 -10
-5 0 -7 5 -4 10 3 6 8 10 11 10 2 0 4 -4 4 -10z m56 -86 c-11 -7 -22 -12 -25
-9 -2 3 4 12 15 19 10 8 21 12 24 9 3 -2 -4 -11 -14 -19z m-40 -57 c1 -44 1
-47 -6 -19 -4 18 -10 36 -14 39 -4 5 11 33 18 33 0 0 2 -24 2 -53z m948 41
c-7 -11 -41 -10 -49 1 -3 5 8 9 24 9 17 -1 28 -5 25 -10z m-704 -38 c0 -5 -8
-10 -17 -10 -15 0 -16 2 -3 10 19 12 20 12 20 0z m670 6 c0 -3 -4 -8 -10 -11
-5 -3 -10 -1 -10 4 0 6 5 11 10 11 6 0 10 -2 10 -4z m-1081 -51 c7 4 44 -26
86 -69 l75 -76 -34 0 c-44 0 -86 16 -86 33 0 7 -10 21 -22 31 -21 19 -21 20
-3 26 17 6 17 8 -9 21 -16 8 -40 30 -55 49 l-25 35 31 -29 c17 -15 36 -25 42
-21z m-249 5 c14 -7 25 -7 39 2 17 10 23 8 41 -15 30 -38 93 -97 104 -97 5 0
0 10 -11 23 -33 37 -66 88 -60 94 5 4 86 -74 142 -137 l20 -23 -22 7 c-22 7
-37 -6 -38 -34 0 -26 -37 -10 -127 56 -48 35 -90 64 -94 64 -10 0 -43 44 -44
58 0 15 24 16 50 2z m541 -20 c23 -13 25 -28 4 -36 -20 -8 -45 13 -38 32 6 17
9 17 34 4z"/>
<path d="M608 645 c-8 -8 3 -55 13 -55 5 0 9 8 9 18 0 20 -14 44 -22 37z"/>
<path d="M630 570 c0 -5 5 -10 11 -10 5 0 7 5 4 10 -3 6 -8 10 -11 10 -2 0 -4
-4 -4 -10z"/>
<path d="M396 318 c3 -5 10 -6 15 -3 13 9 11 12 -6 12 -8 0 -12 -4 -9 -9z"/>
<path d="M2460 1714 c0 -15 31 -32 68 -39 23 -4 44 -11 48 -16 7 -12 24 -12
24 1 0 6 -5 10 -10 10 -6 0 -29 9 -53 19 -54 24 -77 32 -77 25z"/>
<path d="M1436 1556 c3 -27 12 -59 20 -71 8 -12 21 -46 30 -76 28 -100 61
-153 88 -143 9 3 16 1 16 -6 0 -6 5 -8 10 -5 6 4 27 -10 46 -29 28 -28 35 -41
29 -59 -16 -53 -17 -63 -7 -48 8 12 14 12 25 3 20 -17 41 10 34 40 -4 13 -7
28 -8 33 -1 6 -26 37 -57 70 -30 33 -72 82 -93 110 -22 27 -45 57 -53 65 -8 8
-31 49 -51 90 l-36 75 7 -49z"/>
<path d="M1430 1463 c0 -21 3 -24 9 -14 5 8 7 20 4 28 -8 21 -13 15 -13 -14z"/>
<path d="M1453 1306 c1 -16 9 -32 17 -34 12 -4 13 -2 4 9 -7 8 -14 23 -17 34
-4 13 -5 9 -4 -9z"/>
<path d="M2360 790 c0 -5 5 -10 10 -10 6 0 10 5 10 10 0 6 -4 10 -10 10 -5 0
-10 -4 -10 -10z"/>
<path d="M1381 761 c-29 -5 -36 -12 -48 -46 -18 -51 -10 -81 22 -89 29 -7 48
0 40 15 -4 5 1 9 10 9 12 0 15 6 10 23 -4 12 -11 26 -16 31 -5 6 0 19 12 32
24 26 17 32 -30 25z"/>
<path d="M1446 748 c-13 -41 -17 -105 -6 -88 8 12 10 9 10 -12 0 -15 4 -29 9
-32 13 -8 21 35 10 55 -14 27 -11 47 9 51 15 3 15 5 -4 26 l-22 22 -6 -22z"/>
<path d="M2393 706 c7 -14 13 -23 15 -21 7 6 -9 45 -18 45 -4 0 -3 -11 3 -24z"/>
<path d="M1418 633 c7 -3 16 -2 19 1 4 3 -2 6 -13 5 -11 0 -14 -3 -6 -6z"/>
<path d="M2421 614 c0 -11 3 -14 6 -6 3 7 2 16 -1 19 -3 4 -6 -2 -5 -13z"/>
<path d="M1420 610 c0 -5 6 -10 13 -10 8 0 9 -2 1 -8 -7 -4 -8 -16 -4 -27 7
-20 7 -20 14 1 7 23 -1 54 -15 54 -5 0 -9 -4 -9 -10z"/>
<path d="M1405 370 c-3 -5 1 -10 9 -10 9 0 16 5 16 10 0 6 -4 10 -9 10 -6 0
-13 -4 -16 -10z"/>
<path d="M1382 169 c-12 -18 -11 -20 5 -17 10 2 19 11 21 21 5 23 -10 21 -26
-4z"/>
<path d="M1490 170 c-6 -11 -21 -20 -33 -21 -12 -1 -2 -5 23 -10 52 -10 76 -6
41 8 -20 8 -21 11 -8 16 21 8 22 27 2 27 -8 0 -19 -9 -25 -20z"/>
<path d="M1407 146 c-6 -16 2 -28 14 -20 12 7 11 34 0 34 -5 0 -11 -6 -14 -14z"/>
</g>
</svg>
